<?xml version="1.0" encoding="utf-8"?>
<!-- Generator: Adobe Illustrator 27.5.0, SVG Export Plug-In . SVG Version: 6.00 Build 0)  -->
<svg version="1.1" id="Capa_1" xmlns="http://www.w3.org/2000/svg" xmlns:xlink="http://www.w3.org/1999/xlink" x="0px" y="0px"
	 viewBox="0 0 425.197 425.196" style="enable-background:new 0 0 425.197 425.196;" xml:space="preserve">
<rect x="0" y="-0.001" style="fill:#E9EAEC;" width="425.196" height="425.197"/>
<g>
	<path style="fill:#122242;" d="M351.963,306.377c0.107-0.728-0.025-1.527-0.428-2.356l-46.551-56.816
		c4.861,0,8.808-3.942,8.808-8.806V116.037c0-4.859-3.947-8.804-8.808-8.804H115.58c-4.864,0-8.812,3.945-8.812,8.804v122.361
		c0,4.864,3.948,8.806,8.812,8.806h7.419L74.142,300.98c-1.38,1.605-0.927,3.755,0.462,5.531c-0.014-0.028-0.034-0.045-0.048-0.067
		c-0.241-0.356-1.125-1.222-1.026-1.717c-0.928,4.245-0.154,13.236,5.568,13.236h264.088
		C350.204,317.963,352.281,310.841,351.963,306.377z"/>
	<g>
		<g>
			<path style="fill:#E9EAEC;" d="M76.875,308.639c-0.641-0.351-1.479-1.046-2.158-1.976c0.851,1.031,2.018,1.911,3.323,2.488
				C77.615,308.994,77.216,308.823,76.875,308.639z"/>
			<polygon style="fill:#E9EAEC;" points="323.961,278.256 302.554,278.256 289.875,278.256 286.618,272.512 298.732,272.512 
				319.179,272.512 			"/>
			<polygon style="fill:#E9EAEC;" points="136.106,252.421 146.242,252.421 142.296,258.163 131.597,258.163 			"/>
			<polygon style="fill:#E9EAEC;" points="135.079,251.581 124.561,251.581 126.946,248.941 137.195,248.941 			"/>
			<polygon style="fill:#E9EAEC;" points="281.179,252.421 284.761,258.163 274.06,258.163 271.044,252.421 			"/>
			<polygon style="fill:#E9EAEC;" points="276.299,248.941 286.553,248.941 288.398,251.581 277.872,251.581 			"/>
			<polygon style="fill:#E9EAEC;" points="288.929,265.625 292.502,271.38 280.495,271.38 277.496,265.625 			"/>
			<polygon style="fill:#E9EAEC;" points="268.921,264.734 266.328,258.99 277.114,258.99 280.266,264.734 			"/>
			<polygon style="fill:#E9EAEC;" points="290.892,265.625 302.322,265.625 306.554,271.38 294.556,271.38 			"/>
			<polygon style="fill:#E9EAEC;" points="282.218,264.734 278.961,258.99 289.736,258.99 293.565,264.734 			"/>
			<polygon style="fill:#E9EAEC;" points="265.102,251.581 263.86,248.941 274.107,248.941 275.628,251.581 			"/>
			<polygon style="fill:#E9EAEC;" points="269.301,252.421 272.229,258.163 261.523,258.163 259.169,252.421 			"/>
			<polygon style="fill:#E9EAEC;" points="252.324,251.581 251.408,248.941 261.66,248.941 262.847,251.581 			"/>
			<polygon style="fill:#E9EAEC;" points="256.995,252.421 259.235,258.163 248.536,258.163 246.866,252.421 			"/>
			<polygon style="fill:#E9EAEC;" points="252.715,264.734 241.365,264.734 240.149,258.99 250.926,258.99 			"/>
			<polygon style="fill:#E9EAEC;" points="239.546,251.581 238.959,248.941 249.216,248.941 250.072,251.581 			"/>
			<polygon style="fill:#E9EAEC;" points="244.688,252.421 246.241,258.163 235.538,258.163 234.554,252.421 			"/>
			<polygon style="fill:#E9EAEC;" points="238.943,264.734 227.588,264.734 227.057,258.99 237.84,258.99 			"/>
			<polygon style="fill:#E9EAEC;" points="226.774,251.581 226.52,248.941 236.764,248.941 237.295,251.581 			"/>
			<polygon style="fill:#E9EAEC;" points="232.383,252.421 233.248,258.163 222.548,258.163 222.251,252.421 			"/>
			<polygon style="fill:#E9EAEC;" points="225.162,264.734 213.811,264.734 213.967,258.99 224.747,258.99 			"/>
			<polygon style="fill:#E9EAEC;" points="213.997,251.581 214.071,248.941 224.325,248.941 224.517,251.581 			"/>
			<polygon style="fill:#E9EAEC;" points="220.077,252.421 220.255,258.163 209.557,258.163 209.942,252.421 			"/>
			<polygon style="fill:#E9EAEC;" points="211.651,258.99 211.386,264.734 200.034,264.734 200.878,258.99 			"/>
			<polygon style="fill:#E9EAEC;" points="211.744,251.581 201.221,251.581 201.623,248.941 211.875,248.941 			"/>
			<polygon style="fill:#E9EAEC;" points="207.775,252.421 207.265,258.163 196.561,258.163 197.64,252.421 			"/>
			<polygon style="fill:#E9EAEC;" points="198.566,258.99 197.609,264.734 186.258,264.734 187.787,258.99 			"/>
			<polygon style="fill:#E9EAEC;" points="198.965,251.581 188.441,251.581 189.178,248.941 199.42,248.941 			"/>
			<polygon style="fill:#E9EAEC;" points="195.468,252.421 194.269,258.163 183.571,258.163 185.339,252.421 			"/>
			<polygon style="fill:#E9EAEC;" points="185.479,258.99 183.83,264.734 172.483,264.734 174.696,258.99 			"/>
			<polygon style="fill:#E9EAEC;" points="186.188,251.581 175.669,251.581 176.731,248.941 186.977,248.941 			"/>
			<polygon style="fill:#E9EAEC;" points="183.159,252.421 181.276,258.163 170.581,258.163 173.024,252.421 			"/>
			<polygon style="fill:#E9EAEC;" points="163.97,265.625 161.35,271.38 149.353,271.38 152.539,265.625 			"/>
			<polygon style="fill:#E9EAEC;" points="144.929,264.734 148.515,258.99 159.293,258.99 156.275,264.734 			"/>
			<polygon style="fill:#E9EAEC;" points="158.706,264.734 161.604,258.99 172.388,258.99 170.049,264.734 			"/>
			<polygon style="fill:#E9EAEC;" points="173.417,251.581 162.893,251.581 164.282,248.941 174.538,248.941 			"/>
			<polygon style="fill:#E9EAEC;" points="170.853,252.421 168.286,258.163 157.583,258.163 160.718,252.421 			"/>
			<polygon style="fill:#E9EAEC;" points="160.641,251.581 150.118,251.581 151.844,248.941 162.088,248.941 			"/>
			<polygon style="fill:#E9EAEC;" points="158.549,252.421 155.29,258.163 144.594,258.163 148.412,252.421 			"/>
			<polygon style="fill:#E9EAEC;" points="147.864,251.581 137.342,251.581 139.393,248.941 149.644,248.941 			"/>
			<polygon style="fill:#E9EAEC;" points="146.204,258.99 142.496,264.734 131.15,264.734 135.418,258.99 			"/>
			<polygon style="fill:#E9EAEC;" points="150.081,265.625 146.781,271.38 134.781,271.38 138.649,265.625 			"/>
			<polygon style="fill:#E9EAEC;" points="137.479,272.512 133.766,278.256 121.09,278.256 125.364,272.512 			"/>
			<polygon style="fill:#E9EAEC;" points="140.07,272.512 152.188,272.512 149.161,278.256 136.483,278.256 			"/>
			<polygon style="fill:#E9EAEC;" points="154.778,272.512 166.892,272.512 164.555,278.256 151.881,278.256 			"/>
			<polygon style="fill:#E9EAEC;" points="163.919,271.38 166.417,265.625 177.858,265.625 175.926,271.38 			"/>
			<polygon style="fill:#E9EAEC;" points="169.486,272.512 181.597,272.512 179.948,278.256 167.273,278.256 			"/>
			<polygon style="fill:#E9EAEC;" points="178.49,271.38 180.299,265.625 191.74,265.625 190.493,271.38 			"/>
			<polygon style="fill:#E9EAEC;" points="184.195,272.512 196.312,272.512 195.345,278.256 182.67,278.256 			"/>
			<polygon style="fill:#E9EAEC;" points="193.067,271.38 194.188,265.625 205.623,265.625 205.07,271.38 			"/>
			<polygon style="fill:#E9EAEC;" points="198.901,272.512 211.016,272.512 210.739,278.256 198.061,278.256 			"/>
			<polygon style="fill:#E9EAEC;" points="207.636,271.38 208.069,265.625 219.507,265.625 219.643,271.38 			"/>
			<polygon style="fill:#E9EAEC;" points="213.605,272.512 225.72,272.512 226.128,278.256 213.45,278.256 			"/>
			<polygon style="fill:#E9EAEC;" points="222.211,271.38 221.954,265.625 233.393,265.625 234.209,271.38 			"/>
			<polygon style="fill:#E9EAEC;" points="240.421,272.512 241.522,278.256 228.849,278.256 228.318,272.512 			"/>
			<polygon style="fill:#E9EAEC;" points="236.782,271.38 235.84,265.625 247.278,265.625 248.778,271.38 			"/>
			<polygon style="fill:#E9EAEC;" points="255.133,272.512 256.923,278.256 244.236,278.256 243.018,272.512 			"/>
			<polygon style="fill:#E9EAEC;" points="251.352,271.38 249.724,265.625 261.162,265.625 263.354,271.38 			"/>
			<polygon style="fill:#E9EAEC;" points="255.148,264.734 253.242,258.99 264.023,258.99 266.491,264.734 			"/>
			<polygon style="fill:#E9EAEC;" points="275.048,265.625 277.926,271.38 265.922,271.38 263.61,265.625 			"/>
			<polygon style="fill:#E9EAEC;" points="284.544,272.512 287.704,278.256 275.024,278.256 272.436,272.512 			"/>
			<polygon style="fill:#E9EAEC;" points="310.813,262.442 312.71,264.734 318.241,271.38 308.99,271.38 303.972,264.734 
				296.441,264.734 292.478,258.99 307.935,258.99 			"/>
			<polygon style="fill:#E9EAEC;" points="307.26,258.163 287.412,258.163 283.684,252.421 302.483,252.421 			"/>
			<polygon style="fill:#E9EAEC;" points="288.75,248.941 298.995,248.941 301.176,251.581 290.65,251.581 			"/>
			<rect x="117.563" y="118.699" style="fill:#E9EAEC;" width="185.435" height="117.04"/>
			<polygon style="fill:#E9EAEC;" points="123.797,252.421 133.938,252.421 129.307,258.163 118.606,258.163 			"/>
			<polygon style="fill:#E9EAEC;" points="117.866,258.99 133.333,258.99 128.949,264.734 112.675,264.734 			"/>
			<polygon style="fill:#E9EAEC;" points="111.86,265.625 136.202,265.625 132.212,271.38 106.663,271.38 			"/>
			<polygon style="fill:#E9EAEC;" points="105.639,272.512 123.013,272.512 118.632,278.256 100.444,278.256 			"/>
			<polygon style="fill:#E9EAEC;" points="94.219,285.138 99.424,279.388 110.058,279.388 105.331,285.138 			"/>
			<polygon style="fill:#E9EAEC;" points="107.826,285.138 112.446,279.388 123.083,279.388 118.938,285.138 			"/>
			<polygon style="fill:#E9EAEC;" points="121.437,285.138 125.477,279.388 136.109,279.388 132.544,285.138 			"/>
			<polygon style="fill:#E9EAEC;" points="135.038,285.138 138.503,279.388 149.136,279.388 146.146,285.138 			"/>
			<polygon style="fill:#E9EAEC;" points="151.526,279.388 241.744,279.388 242.842,285.138 148.64,285.138 			"/>
			<polygon style="fill:#E9EAEC;" points="164.534,306.214 171.629,286.973 252.208,286.973 258.288,306.214 			"/>
			<polygon style="fill:#E9EAEC;" points="245.704,285.138 244.484,279.388 257.267,279.388 259.056,285.138 			"/>
			<polygon style="fill:#E9EAEC;" points="257.732,272.512 269.836,272.512 272.31,278.256 259.636,278.256 			"/>
			<polygon style="fill:#E9EAEC;" points="261.92,285.138 260.013,279.388 272.807,279.388 275.271,285.138 			"/>
			<polygon style="fill:#E9EAEC;" points="277.713,285.202 276.533,282.574 291.049,282.574 292.51,285.202 			"/>
			<polygon style="fill:#E9EAEC;" points="292.754,279.058 306.889,279.058 308.71,281.685 294.291,281.685 			"/>
			<polygon style="fill:#E9EAEC;" points="296.345,285.202 294.811,282.574 309.327,282.574 311.149,285.202 			"/>
			<polygon style="fill:#E9EAEC;" points="314.984,285.202 313.088,282.574 327.606,282.574 329.784,285.202 			"/>
		</g>
	</g>
</g>
</svg>
